<?xml version="1.0" encoding="utf-8"?><!-- Uploaded to: SVG Repo, www.svgrepo.com, Generator: SVG Repo Mixer Tools -->
<svg width="800px" height="800px" viewBox="0 0 400 400" fill="none" xmlns="http://www.w3.org/2000/svg">
<path d="M41 156.792C63.5446 151.031 88.7787 156.047 111.15 150.047" stroke="#000000" stroke-opacity="0.9" stroke-width="16" stroke-linecap="round" stroke-linejoin="round"/>
<path d="M287.875 152.745C311.328 148.425 335.43 146 359.374 146" stroke="#000000" stroke-opacity="0.9" stroke-width="16" stroke-linecap="round" stroke-linejoin="round"/>
<path d="M168.256 174.488C198.073 128.175 258.948 175.587 228.131 218.369C209.287 244.523 159.26 231.768 164.088 198.232" stroke="#000000" stroke-opacity="0.9" stroke-width="16" stroke-linecap="round" stroke-linejoin="round"/>
<path d="M200.636 239.084C205.149 249.259 191.192 263.392 192.14 245" stroke="#000000" stroke-opacity="0.9" stroke-width="16" stroke-linecap="round" stroke-linejoin="round"/>
<path d="M159.714 230.99C152.863 236.677 150.875 244.713 148.922 252.575" stroke="#000000" stroke-opacity="0.9" stroke-width="16" stroke-linecap="round" stroke-linejoin="round"/>
<path d="M236.609 226.943C247.254 230.626 249.261 242.063 250.1 248.528" stroke="#000000" stroke-opacity="0.9" stroke-width="16" stroke-linecap="round" stroke-linejoin="round"/>
<path d="M151.62 191.867C129.069 193.379 106.757 198.612 84.168 198.612" stroke="#000000" stroke-opacity="0.9" stroke-width="16" stroke-linecap="round" stroke-linejoin="round"/>
<path d="M248.754 188.772C272.236 189.091 303.562 186.706 322.951 184.143" stroke="#000000" stroke-opacity="0.9" stroke-width="16" stroke-linecap="round" stroke-linejoin="round"/>
<path d="M324.328 172.98C325.558 185.667 327.334 210.052 326.897 216.15" stroke="#000000" stroke-opacity="0.9" stroke-width="16" stroke-linecap="round" stroke-linejoin="round"/>
<path d="M82.2464 181.074C80.2013 196.429 82.5378 212.09 80.7031 226.942" stroke="#000000" stroke-opacity="0.9" stroke-width="16" stroke-linecap="round" stroke-linejoin="round"/>
</svg>